# xmcd CD database file
#
# Track frame offsets:
#	150
#	18167
#	34437
#	50087
#	64200
#	77532
#	94707
#	108030
#	121965
#	135817
#	151037
#	165087
#
# Disc length: 2408 seconds
#
# Revision: 1
# Processed by: cddbd v1.5.2PL0 Copyright (c) Steve Scherf et al.
# Submitted via: CDex 1.51
#
DISCID=8109660c
DTITLE=Bill Anderson - Country
DYEAR=1994
DGENRE=Country
TTITLE0=A Place In The Country
TTITLE1=Once More
TTITLE2=No Ordinary Memory
TTITLE3=The Unicorn
TTITLE4=Your Eyes
TTITLE5=Sheet Music
TTITLE6=Fathers And Sons
TTITLE7=I Wonder Where You Are Tonight
TTITLE8=Maybe Go Down
TTITLE9=Mr. Peepers
TTITLE10=Family Reunion
TTITLE11=We May Never Pass This Way Again
EXTD=YEAR: 1994
EXTT0=
EXTT1=
EXTT2=
EXTT3=
EXTT4=
EXTT5=
EXTT6=
EXTT7=
EXTT8=
EXTT9=
EXTT10=
EXTT11=
PLAYORDER=
